# xmcd
#
# Track frame offsets:
#	150
#	17492
#	37182
#	53229
#	67112
#	85843
#	103605
#	121153
#	137640
#	155745
#	171258
#	190760
#	209358
#	222983
#
# Disc length: 3200 seconds
#
# Revision: 6
# Processed by: cddbd v1.5.2PL0 Copyright (c) Steve Scherf et al.
# Submitted via: audiograbber 1.83.01
#
DISCID=ca0c7e0e
DTITLE=Tim McGraw - Damn Country Music [Deluxe]
DYEAR=2015
DGENRE=Country
TTITLE0=Here Tonight (featuring Gracie McGraw)
TTITLE1=Losin' You
TTITLE2=How I'll Always Be
TTITLE3=Damn Country Music
TTITLE4=Love Runs
TTITLE5=What You're Lookin' For
TTITLE6=Top Of The World
TTITLE7=Don't Make Me Feel At Home
TTITLE8=Want You Back
TTITLE9=California (with Big and Rich)
TTITLE10=Humble And Kind
TTITLE11=Everybody's Lookin'
TTITLE12=Kiss A Girl
TTITLE13=Country And Western
EXTD=
EXTT0=
EXTT1=
EXTT2=
EXTT3=
EXTT4=
EXTT5=
EXTT6=
EXTT7=
EXTT8=
EXTT9=
EXTT10=
EXTT11=
EXTT12=
EXTT13=
PLAYORDER=
